<svg width="20" height="20" viewBox="0 0 20 20" fill="none" xmlns="http://www.w3.org/2000/svg">
<path d="M15 15.7164H14.3667C13.7 15.7164 13.0667 15.9748 12.6 16.4414L11.175 17.8498C10.525 18.4915 9.46667 18.4915 8.81667 17.8498L7.39166 16.4414C6.925 15.9748 6.28333 15.7164 5.625 15.7164H5C3.61667 15.7164 2.5 14.6081 2.5 13.2415V4.14978C2.5 2.78311 3.61667 1.6748 5 1.6748H15C16.3833 1.6748 17.5 2.78311 17.5 4.14978V13.2415C17.5 14.5998 16.3833 15.7164 15 15.7164Z" stroke="white" stroke-width="1.5" stroke-miterlimit="10" stroke-linecap="round" stroke-linejoin="round"/>
<path d="M5.83203 7.63397C5.83203 6.85897 6.46537 6.22559 7.24037 6.22559C8.01537 6.22559 8.6487 6.85897 8.6487 7.63397C8.6487 9.20064 6.42369 9.3673 5.93203 10.859C5.83203 11.1673 6.09036 11.4756 6.41536 11.4756H8.6487" stroke="white" stroke-width="1.5" stroke-linecap="round" stroke-linejoin="round"/>
<path d="M13.3635 11.467V6.70874C13.3635 6.49208 13.2219 6.30036 13.0135 6.24203C12.8052 6.1837 12.5802 6.26703 12.4635 6.45036C11.8635 7.41703 11.2135 8.51704 10.6469 9.48371C10.5552 9.64204 10.5552 9.85038 10.6469 10.0087C10.7385 10.167 10.9135 10.267 11.1052 10.267H14.1635" stroke="white" stroke-width="1.5" stroke-linecap="round" stroke-linejoin="round"/>
</svg>
