<svg width="20" height="20" viewBox="0 0 20 20" fill="none" xmlns="http://www.w3.org/2000/svg">
<path d="M15.1161 18.0166C14.3828 18.2333 13.5161 18.3333 12.4995 18.3333H7.49948C6.48281 18.3333 5.61615 18.2333 4.88281 18.0166C5.06615 15.85 7.29115 14.1416 9.99948 14.1416C12.7078 14.1416 14.9328 15.85 15.1161 18.0166Z" stroke="white" stroke-width="1.5" stroke-linecap="round" stroke-linejoin="round"/>
<path d="M12.4974 1.6665H7.4974C3.33073 1.6665 1.66406 3.33317 1.66406 7.49984V12.4998C1.66406 15.6498 2.61406 17.3748 4.88073 18.0165C5.06406 15.8498 7.28906 14.1415 9.9974 14.1415C12.7057 14.1415 14.9307 15.8498 15.1141 18.0165C17.3807 17.3748 18.3307 15.6498 18.3307 12.4998V7.49984C18.3307 3.33317 16.6641 1.6665 12.4974 1.6665ZM9.9974 11.8082C8.3474 11.8082 7.01406 10.4665 7.01406 8.81652C7.01406 7.16652 8.3474 5.83317 9.9974 5.83317C11.6474 5.83317 12.9807 7.16652 12.9807 8.81652C12.9807 10.4665 11.6474 11.8082 9.9974 11.8082Z" stroke="white" stroke-width="1.5" stroke-linecap="round" stroke-linejoin="round"/>
<path d="M12.9823 8.81684C12.9823 10.4668 11.649 11.8085 9.99896 11.8085C8.34896 11.8085 7.01562 10.4668 7.01562 8.81684C7.01562 7.16684 8.34896 5.8335 9.99896 5.8335C11.649 5.8335 12.9823 7.16684 12.9823 8.81684Z" stroke="white" stroke-width="1.5" stroke-linecap="round" stroke-linejoin="round"/>
</svg>
