<svg width="20" height="20" viewBox="0 0 20 20" fill="none" xmlns="http://www.w3.org/2000/svg">
<path d="M17.5 5.83366V14.167C17.5 16.667 16.25 18.3337 13.3333 18.3337H6.66667C3.75 18.3337 2.5 16.667 2.5 14.167V5.83366C2.5 3.33366 3.75 1.66699 6.66667 1.66699H13.3333C16.25 1.66699 17.5 3.33366 17.5 5.83366Z" stroke="white" stroke-width="1.5" stroke-miterlimit="10" stroke-linecap="round" stroke-linejoin="round"/>
<path d="M12.9154 1.66699V8.21698C12.9154 8.58365 12.482 8.76698 12.2153 8.52531L10.2821 6.74201C10.1237 6.59201 9.87368 6.59201 9.71534 6.74201L7.78205 8.52531C7.51539 8.76698 7.08203 8.58365 7.08203 8.21698V1.66699H12.9154Z" stroke="white" stroke-width="1.5" stroke-miterlimit="10" stroke-linecap="round" stroke-linejoin="round"/>
<path d="M11.043 11.667H14.5846" stroke="white" stroke-width="1.5" stroke-miterlimit="10" stroke-linecap="round" stroke-linejoin="round"/>
<path d="M7.5 15H14.5833" stroke="white" stroke-width="1.5" stroke-miterlimit="10" stroke-linecap="round" stroke-linejoin="round"/>
</svg>
