<svg width="20" height="20" viewBox="0 0 20 20" fill="none" xmlns="http://www.w3.org/2000/svg">
<path d="M14.1641 8.33317H15.8307C17.4974 8.33317 18.3307 7.49984 18.3307 5.83317V4.1665C18.3307 2.49984 17.4974 1.6665 15.8307 1.6665H14.1641C12.4974 1.6665 11.6641 2.49984 11.6641 4.1665V5.83317C11.6641 7.49984 12.4974 8.33317 14.1641 8.33317Z" stroke="white" stroke-width="1.5" stroke-miterlimit="10" stroke-linecap="round" stroke-linejoin="round"/>
<path d="M4.16406 18.3332H5.83073C7.4974 18.3332 8.33073 17.4998 8.33073 15.8332V14.1665C8.33073 12.4998 7.4974 11.6665 5.83073 11.6665H4.16406C2.4974 11.6665 1.66406 12.4998 1.66406 14.1665V15.8332C1.66406 17.4998 2.4974 18.3332 4.16406 18.3332Z" stroke="white" stroke-width="1.5" stroke-miterlimit="10" stroke-linecap="round" stroke-linejoin="round"/>
<path d="M4.9974 8.33317C6.83835 8.33317 8.33073 6.84079 8.33073 4.99984C8.33073 3.15889 6.83835 1.6665 4.9974 1.6665C3.15645 1.6665 1.66406 3.15889 1.66406 4.99984C1.66406 6.84079 3.15645 8.33317 4.9974 8.33317Z" stroke="white" stroke-width="1.5" stroke-miterlimit="10" stroke-linecap="round" stroke-linejoin="round"/>
<path d="M14.9974 18.3332C16.8383 18.3332 18.3307 16.8408 18.3307 14.9998C18.3307 13.1589 16.8383 11.6665 14.9974 11.6665C13.1564 11.6665 11.6641 13.1589 11.6641 14.9998C11.6641 16.8408 13.1564 18.3332 14.9974 18.3332Z" stroke="white" stroke-width="1.5" stroke-miterlimit="10" stroke-linecap="round" stroke-linejoin="round"/>
</svg>
