<svg width="20" height="20" viewBox="0 0 20 20" fill="none" xmlns="http://www.w3.org/2000/svg">
<path d="M6.66734 18.3333H13.334C16.684 18.3333 17.284 16.9917 17.459 15.3583L18.084 8.69167C18.309 6.65833 17.7257 5 14.1673 5H5.834C2.27567 5 1.69234 6.65833 1.91734 8.69167L2.54234 15.3583C2.71734 16.9917 3.31734 18.3333 6.66734 18.3333Z" stroke="white" stroke-width="1.5" stroke-miterlimit="10" stroke-linecap="round" stroke-linejoin="round"/>
<path d="M6.66406 4.99984V4.33317C6.66406 2.85817 6.66406 1.6665 9.33073 1.6665H10.6641C13.3307 1.6665 13.3307 2.85817 13.3307 4.33317V4.99984" stroke="white" stroke-width="1.5" stroke-miterlimit="10" stroke-linecap="round" stroke-linejoin="round"/>
<path d="M11.6693 10.8333V11.6667C11.6693 11.675 11.6693 11.675 11.6693 11.6833C11.6693 12.5917 11.6609 13.3333 10.0026 13.3333C8.3526 13.3333 8.33594 12.6 8.33594 11.6917V10.8333C8.33594 10 8.33594 10 9.16927 10H10.8359C11.6693 10 11.6693 10 11.6693 10.8333Z" stroke="white" stroke-width="1.5" stroke-miterlimit="10" stroke-linecap="round" stroke-linejoin="round"/>
<path d="M18.0391 9.1665C16.1141 10.5665 13.9141 11.3998 11.6641 11.6832" stroke="white" stroke-width="1.5" stroke-miterlimit="10" stroke-linecap="round" stroke-linejoin="round"/>
<path d="M2.17969 9.3916C4.05469 10.6749 6.17135 11.4499 8.32969 11.6916" stroke="white" stroke-width="1.5" stroke-miterlimit="10" stroke-linecap="round" stroke-linejoin="round"/>
</svg>
