<svg width="20" height="20" viewBox="0 0 20 20" fill="none" xmlns="http://www.w3.org/2000/svg">
<path d="M11.5069 15.8452L11.5051 15.8442C10.557 15.3751 9.45129 15.3751 8.50321 15.8442L8.50136 15.8452L5.60196 17.2949C3.54065 18.3221 1.38038 16.1089 2.45 14.085C2.4501 14.0848 2.4502 14.0846 2.4503 14.0845L3.13297 12.8024L3.13298 12.8024L3.13455 12.7994C3.17387 12.7243 3.24 12.6607 3.32298 12.6228C3.32317 12.6227 3.32335 12.6226 3.32354 12.6226L13.8522 7.87465C13.8527 7.87445 13.8531 7.87426 13.8535 7.87406C14.0496 7.78817 14.2722 7.87015 14.3647 8.04806L14.3658 8.05023L17.5408 14.0836L17.5413 14.0845C18.6141 16.1132 16.455 18.3192 14.4069 17.2952L11.5069 15.8452Z" fill="currentColor" stroke="currentColor"/>
<path d="M12.7965 5.95332L12.795 5.95402L5.89501 9.06235L5.89458 9.06254C5.55125 9.21759 5.20943 8.84603 5.38322 8.52019L5.3844 8.51796L7.91773 3.70963L7.91779 3.70951C8.80527 2.024 11.2119 2.02391 12.0995 3.70926C12.0995 3.70934 12.0996 3.70943 12.0996 3.70951L12.9892 5.40558C13.0917 5.60997 12.9997 5.86263 12.7965 5.95332Z" fill="currentColor" stroke="currentColor"/>
</svg>
