<svg width="20" height="20" viewBox="0 0 20 20" fill="none" xmlns="http://www.w3.org/2000/svg">
<g id="vuesax/linear/wallet">
<g id="vuesax/linear/wallet_2">
<path id="Vector" d="M18.3327 9.99967V14.1663C18.3327 16.6663 16.666 18.333 14.166 18.333H5.83268C3.33268 18.333 1.66602 16.6663 1.66602 14.1663V9.99967C1.66602 7.73301 3.03268 6.14967 5.15768 5.88301C5.37435 5.84967 5.59935 5.83301 5.83268 5.83301H14.166C14.3827 5.83301 14.591 5.84133 14.791 5.87466C16.941 6.12466 18.3327 7.71634 18.3327 9.99967Z" stroke="white" stroke-width="1.5" stroke-linecap="round" stroke-linejoin="round"/>
<path id="Vector_2" d="M14.7935 5.87532C14.5935 5.84199 14.3852 5.83367 14.1685 5.83367H5.83516C5.60182 5.83367 5.37682 5.85033 5.16016 5.88367C5.27682 5.65033 5.44349 5.43367 5.64349 5.23367L8.35182 2.51699C9.49349 1.38366 11.3435 1.38366 12.4852 2.51699L13.9435 3.99201C14.4768 4.51701 14.7602 5.18366 14.7935 5.87532Z" stroke="white" stroke-width="1.5" stroke-linecap="round" stroke-linejoin="round"/>
<path id="Vector_3" d="M18.3327 10.417H15.8327C14.916 10.417 14.166 11.167 14.166 12.0837C14.166 13.0003 14.916 13.7503 15.8327 13.7503H18.3327" stroke="white" stroke-width="1.5" stroke-linecap="round" stroke-linejoin="round"/>
</g>
</g>
</svg>
