<svg width="20" height="20" viewBox="0 0 20 20" fill="none" xmlns="http://www.w3.org/2000/svg">
<g id="vuesax/bold/wallet">
<g id="vuesax/bold/wallet_2">
<g id="wallet">
<path id="Vector" d="M15.8773 11.8202L15.8774 11.8202L15.8765 11.8104C15.8669 11.7118 15.9049 11.6145 15.974 11.5454L15.9742 11.5455L15.9835 11.5357C16.0309 11.4857 16.1038 11.4502 16.2038 11.4502H17.3788V12.1169H16.2538C16.0337 12.1169 15.8877 11.9552 15.8773 11.8202Z" fill="CurrentColor" stroke="CurrentColor"/>
<path id="Vector_2" d="M14.0555 12.3523L14.0555 12.3523L14.0575 12.3597C14.3439 13.3838 15.3262 13.9917 16.3141 13.9917H17.0391C17.2213 13.9917 17.3724 14.1428 17.3724 14.325V14.4834C17.3724 15.9322 16.1879 17.1167 14.7391 17.1167H5.1724C3.72354 17.1167 2.53906 15.9322 2.53906 14.4834V8.87503C2.53906 8.01355 2.9516 7.25138 3.58836 6.77556L3.58837 6.77558L3.59208 6.77275C4.0323 6.43735 4.5764 6.2417 5.1724 6.2417H14.7391C16.1879 6.2417 17.3724 7.42617 17.3724 8.87503V9.2417C17.3724 9.42389 17.2213 9.57503 17.0391 9.57503H16.1891C15.5905 9.57503 15.0377 9.81061 14.6349 10.222C14.099 10.75 13.8415 11.5391 14.0555 12.3523Z" fill="CurrentColor" stroke="CurrentColor"/>
<path id="Vector_3" d="M13.4979 4.0165C13.7229 4.2415 13.5313 4.5915 13.2146 4.5915L6.8146 4.58317C6.44793 4.58317 6.25627 4.13317 6.52293 3.87484L7.87293 2.5165C9.0146 1.38317 10.8646 1.38317 12.0063 2.5165L13.4646 3.9915C13.4729 3.99984 13.4896 4.00817 13.4979 4.0165Z" fill="CurrentColor"/>
</g>
</g>
</g>
</svg>
