<svg width="22" height="24" viewBox="0 0 22 24" fill="none" xmlns="http://www.w3.org/2000/svg">
<path d="M18.2293 0.666617L18.7196 0.764675C18.7349 0.68773 18.7806 0.624113 18.8274 0.59144C18.8489 0.576425 18.8654 0.571442 18.8747 0.569982C18.8819 0.56886 18.8902 0.568717 18.9034 0.573409C19.2293 0.701864 19.5284 0.87527 19.7908 1.0921L19.7924 1.09336C20.5968 1.75256 21.1693 2.91628 21.1693 4.99995V17.9999C21.1693 19.8976 20.607 21.0747 19.7808 21.7882C18.9409 22.5135 17.744 22.8333 16.3359 22.8333H5.66927C4.26118 22.8333 3.06431 22.5135 2.2244 21.7882C1.39819 21.0747 0.835938 19.8976 0.835938 17.9999V4.99995C0.835938 3.63654 1.08283 2.66661 1.47661 1.97822C1.86525 1.29882 2.41638 0.859138 3.09703 0.583358L3.09704 0.583371L3.10045 0.581959C3.11154 0.577367 3.11756 0.577458 3.12353 0.578338C3.13179 0.579558 3.14895 0.584342 3.17232 0.60058C3.22368 0.636261 3.27064 0.703676 3.28555 0.777531C3.49232 1.82523 4.02212 2.79324 4.78238 3.5535C5.82246 4.59358 7.20282 5.16662 8.66927 5.16662H13.3359C16.005 5.16662 18.2206 3.27434 18.7197 0.764124L18.2293 0.666617ZM18.2293 0.666617C17.7759 2.94662 15.7626 4.66662 13.3359 4.66662H8.66927C7.33594 4.66662 6.0826 4.14662 5.13594 3.19995C4.4426 2.50662 3.9626 1.62662 3.77594 0.679951L20.1093 0.706617C19.8026 0.453284 19.4559 0.253284 19.0826 0.106617C18.6959 -0.0400495 18.3093 0.266617 18.2293 0.666617ZM11.0026 9.83328H5.66927C4.84646 9.83328 4.16927 10.5105 4.16927 11.3333C4.16927 12.1561 4.84646 12.8333 5.66927 12.8333H11.0026C11.8254 12.8333 12.5026 12.1561 12.5026 11.3333C12.5026 10.5105 11.8254 9.83328 11.0026 9.83328ZM5.66927 18.1666H16.3359C17.1587 18.1666 17.8359 17.4894 17.8359 16.6666C17.8359 15.8438 17.1587 15.1666 16.3359 15.1666H5.66927C4.84646 15.1666 4.16927 15.8438 4.16927 16.6666C4.16927 17.4894 4.84646 18.1666 5.66927 18.1666Z" fill="white" stroke="white"/>
</svg>
