<svg width="250" height="200" viewBox="0 0 250 200" fill="none" xmlns="http://www.w3.org/2000/svg">
<rect width="250" height="200" rx="16" fill="white"/>
<path fill-rule="evenodd" clip-rule="evenodd" d="M207 65C210.866 65 214 68.134 214 72C214 75.866 210.866 79 207 79H167C170.866 79 174 82.134 174 86C174 89.866 170.866 93 167 93H189C192.866 93 196 96.134 196 100C196 103.866 192.866 107 189 107H178.826C173.952 107 170 110.134 170 114C170 116.577 172 118.911 176 121C179.866 121 183 124.134 183 128C183 131.866 179.866 135 176 135H93C89.134 135 86 131.866 86 128C86 124.134 89.134 121 93 121H54C50.134 121 47 117.866 47 114C47 110.134 50.134 107 54 107H94C97.866 107 101 103.866 101 100C101 96.134 97.866 93 94 93H69C65.134 93 62 89.866 62 86C62 82.134 65.134 79 69 79H109C105.134 79 102 75.866 102 72C102 68.134 105.134 65 109 65H207ZM207 93C210.866 93 214 96.134 214 100C214 103.866 210.866 107 207 107C203.134 107 200 103.866 200 100C200 96.134 203.134 93 207 93Z" fill="#F8F9FA"/>
<path fill-rule="evenodd" clip-rule="evenodd" d="M153.673 64.0002L162.975 131.843L163.811 138.649C164.08 140.842 162.521 142.838 160.328 143.107L101.768 150.297C99.5753 150.566 97.5795 149.007 97.3103 146.814L88.2945 73.3869C88.1599 72.2906 88.9395 71.2927 90.0359 71.1581C90.0428 71.1573 90.0497 71.1565 90.0567 71.1557L94.915 70.6107M98.8436 70.17L103.431 69.6555L98.8436 70.17Z" fill="white"/>
<path d="M154.912 63.8304C154.818 63.1464 154.187 62.668 153.503 62.7618C152.82 62.8556 152.341 63.486 152.435 64.17L154.912 63.8304ZM162.975 131.843L164.216 131.691C164.215 131.685 164.214 131.679 164.214 131.673L162.975 131.843ZM163.811 138.649L165.052 138.497L163.811 138.649ZM160.328 143.107L160.481 144.348L160.328 143.107ZM101.768 150.297L101.92 151.538L101.768 150.297ZM97.3103 146.814L98.551 146.662L97.3103 146.814ZM90.0567 71.1557L90.196 72.3979L90.0567 71.1557ZM95.0544 71.8529C95.7404 71.7759 96.2342 71.1574 96.1572 70.4713C96.0803 69.7853 95.4617 69.2915 94.7757 69.3685L95.0544 71.8529ZM98.7042 68.9278C98.0182 69.0048 97.5244 69.6233 97.6014 70.3094C97.6783 70.9954 98.2969 71.4892 98.9829 71.4122L98.7042 68.9278ZM103.57 70.8977C104.256 70.8207 104.75 70.2022 104.673 69.5161C104.596 68.8301 103.977 68.3363 103.291 68.4133L103.57 70.8977ZM152.435 64.17L161.737 132.013L164.214 131.673L154.912 63.8304L152.435 64.17ZM161.734 131.995L162.57 138.802L165.052 138.497L164.216 131.691L161.734 131.995ZM162.57 138.802C162.755 140.309 161.683 141.681 160.176 141.866L160.481 144.348C163.358 143.994 165.405 141.375 165.052 138.497L162.57 138.802ZM160.176 141.866L101.616 149.057L101.92 151.538L160.481 144.348L160.176 141.866ZM101.616 149.057C100.108 149.242 98.7361 148.17 98.551 146.662L96.0696 146.967C96.423 149.845 99.0424 151.891 101.92 151.538L101.616 149.057ZM98.551 146.662L89.5352 73.2346L87.0538 73.5393L96.0696 146.967L98.551 146.662ZM89.5352 73.2346C89.4847 72.8235 89.7771 72.4493 90.1882 72.3988L89.8835 69.9174C88.102 70.1362 86.8351 71.7577 87.0538 73.5393L89.5352 73.2346ZM90.1882 72.3988C90.1908 72.3985 90.1934 72.3982 90.196 72.3979L89.9173 69.9135C89.9061 69.9147 89.8948 69.9161 89.8835 69.9174L90.1882 72.3988ZM90.196 72.3979L95.0544 71.8529L94.7757 69.3685L89.9173 69.9135L90.196 72.3979ZM98.9829 71.4122L103.57 70.8977L103.291 68.4133L98.7042 68.9278L98.9829 71.4122Z" fill="#121212"/>
<path fill-rule="evenodd" clip-rule="evenodd" d="M151.141 68.2691L159.56 129.753L160.318 135.921C160.562 137.908 159.168 139.714 157.204 139.956L104.762 146.395C102.798 146.636 101.009 145.22 100.765 143.233L92.6148 76.8567C92.4802 75.7603 93.2598 74.7625 94.3562 74.6278L100.844 73.8313" fill="#DDE2E5"/>
<path d="M107.922 54C107.922 52.4812 109.153 51.25 110.672 51.25H156.229C156.958 51.25 157.657 51.5395 158.173 52.0549L171.616 65.4898C172.132 66.0056 172.422 66.7053 172.422 67.4349V130C172.422 131.519 171.191 132.75 169.672 132.75H110.672C109.153 132.75 107.922 131.519 107.922 130V54Z" fill="white" stroke="#121212" stroke-width="2.5"/>
<path d="M156.672 52.4028V64C156.672 65.6569 158.015 67 159.672 67H167.605" stroke="#121212" stroke-width="2.5" stroke-linecap="round" stroke-linejoin="round"/>
<path d="M118 118H144M118 67H144H118ZM118 79H161H118ZM118 92H161H118ZM118 105H161H118Z" stroke="#33CC33" stroke-opacity="0.4" stroke-width="2.5" stroke-linecap="round" stroke-linejoin="round"/>
</svg>
