<svg width="167" height="134" viewBox="0 0 167 134" fill="none" xmlns="http://www.w3.org/2000/svg">
<rect width="167" height="134" fill="white"/>
<path fill-rule="evenodd" clip-rule="evenodd" d="M42.0796 89.7799H102.868C103.211 89.7799 103.547 89.7426 103.87 89.672C104.192 89.7426 104.528 89.7799 104.872 89.7799H139.608C142.19 89.7799 144.284 87.6801 144.284 85.0899C144.284 82.4997 142.19 80.3999 139.608 80.3999H135.6C133.017 80.3999 130.924 78.3001 130.924 75.7099C130.924 73.1197 133.017 71.0199 135.6 71.0199H148.292C150.874 71.0199 152.968 68.9201 152.968 66.3299C152.968 63.7397 150.874 61.6399 148.292 61.6399H133.596C136.178 61.6399 138.272 59.5401 138.272 56.9499C138.272 54.3597 136.178 52.2599 133.596 52.2599H90.8436C93.426 52.2599 95.5196 50.1601 95.5196 47.5699C95.5196 44.9797 93.426 42.8799 90.8436 42.8799H52.7676C50.1851 42.8799 48.0916 44.9797 48.0916 47.5699C48.0916 50.1601 50.1851 52.2599 52.7676 52.2599H26.0476C23.4651 52.2599 21.3716 54.3597 21.3716 56.9499C21.3716 59.5401 23.4651 61.6399 26.0476 61.6399H42.7476C45.33 61.6399 47.4236 63.7397 47.4236 66.3299C47.4236 68.9201 45.33 71.0199 42.7476 71.0199H16.0276C13.4451 71.0199 11.3516 73.1197 11.3516 75.7099C11.3516 78.3001 13.4451 80.3999 16.0276 80.3999H42.0796C39.4971 80.3999 37.4036 82.4997 37.4036 85.0899C37.4036 87.6801 39.4971 89.7799 42.0796 89.7799ZM150.963 89.7797C153.546 89.7797 155.639 87.6799 155.639 85.0897C155.639 82.4995 153.546 80.3997 150.963 80.3997C148.381 80.3997 146.287 82.4995 146.287 85.0897C146.287 87.6799 148.381 89.7797 150.963 89.7797Z" fill="#F3F7FF"/>
<path fill-rule="evenodd" clip-rule="evenodd" d="M75.5606 75.2456C75.5084 75.6163 75.4814 75.9951 75.4814 76.3802C75.4814 80.8205 79.0703 84.4202 83.4974 84.4202C87.9245 84.4202 91.5134 80.8205 91.5134 76.3802C91.5134 75.9951 91.4864 75.6163 91.4342 75.2456H110.885V93.1302C110.885 94.2403 109.988 95.1402 108.881 95.1402H58.1134C57.0066 95.1402 56.1094 94.2403 56.1094 93.1302V75.2456H75.5606Z" fill="white"/>
<path fill-rule="evenodd" clip-rule="evenodd" d="M92.1814 75.04C92.1814 79.8504 88.2934 83.75 83.4974 83.75C78.7013 83.75 74.8134 79.8504 74.8134 75.04C74.8134 74.8842 74.8175 74.7293 74.8255 74.5755H56.1094L62.4957 55.6361C62.7711 54.8196 63.5348 54.27 64.3941 54.27H102.601C103.46 54.27 104.224 54.8196 104.499 55.6361L110.885 74.5755H92.1692C92.1773 74.7293 92.1814 74.8842 92.1814 75.04Z" fill="white"/>
<path fill-rule="evenodd" clip-rule="evenodd" d="M90.9142 75.6798C90.9142 79.397 87.5952 83.0803 83.501 83.0803C79.4068 83.0803 76.0878 79.397 76.0878 75.6798C76.0878 75.5594 76.0913 74.7697 76.0982 74.6509H62.125L67.5768 61.3559C67.8118 60.7249 68.4637 60.3003 69.1973 60.3003H97.8047C98.5383 60.3003 99.1902 60.7249 99.4252 61.3559L104.877 74.6509H90.9038C90.9107 74.7697 90.9142 75.5594 90.9142 75.6798Z" fill="#E8F0FE"/>
<path fill-rule="evenodd" clip-rule="evenodd" d="M56.9453 74.7132V92.4599C56.9453 93.1075 57.4687 93.6324 58.1143 93.6324H108.882C109.528 93.6324 110.051 93.1075 110.051 92.4599V74.7132L103.709 55.9043C103.548 55.428 103.103 55.1074 102.602 55.1074H64.3951C63.8938 55.1074 63.4483 55.428 63.2877 55.9043L56.9453 74.7132Z" stroke="#33CC33" stroke-width="1.68249"/>
<path d="M65.4607 74.3701C68.0904 74.3701 70.9282 74.3701 73.9743 74.3701C75.2277 74.3701 75.2277 75.2536 75.2277 75.7101C75.2277 80.1505 78.8992 83.7501 83.4281 83.7501C87.9571 83.7501 91.6285 80.1505 91.6285 75.7101C91.6285 75.2536 91.6285 74.3701 92.8819 74.3701H109.549M60.5 74.3701H62.1207H60.5Z" stroke="#33CC33" stroke-width="1.68249" stroke-linecap="round" stroke-linejoin="round"/>
<path d="M100.263 39.063L92.8489 47.4066M82.8955 36.1802V47.4066V36.1802ZM65.4609 39.063L72.8755 47.4066L65.4609 39.063Z" stroke="#33CC33" stroke-width="1.68249" stroke-linecap="round" stroke-linejoin="round"/>
</svg>
