<svg width="33" height="40" viewBox="0 0 33 40" fill="none" xmlns="http://www.w3.org/2000/svg">
<rect width="32.31" height="40" rx="5" fill="#121212"/>
<path d="M15.68 31.192C9.28 31.192 5.024 26.68 5.024 19.8C5.024 12.92 9.248 8.408 16.128 8.408C21.536 8.408 25.344 11.736 25.92 16.568H21.12C20.544 14.104 18.752 12.472 16 12.472C12.256 12.472 9.92 15.48 9.92 19.8C9.92 24.12 12.16 27.128 16 27.128C18.56 27.128 21.152 25.784 21.6 22.648V22.36H16.032V18.552H26.048V31H22.688L22.208 28.312C21.024 29.88 18.848 31.192 15.68 31.192Z" fill="white"/>
</svg>
