<svg width="191" height="62" viewBox="0 0 191 62" fill="none" xmlns="http://www.w3.org/2000/svg">
<g opacity="0.1">
<path d="M67.4218 60.7086C67.4218 60.7086 72.2238 64.7098 78.3516 58.6253C81.5297 55.4696 63.4526 62.1997 67.4218 60.7086C71.9411 59.0108 9.40411 59.5992 14.0551 60.7086C-10.6245 54.8218 24.854 63.2846 14.0551 60.7086C24.3447 63.163 -21.9618 60.7086 14.0527 60.7086C14.0557 60.7086 31.436 30.8857 39.4508 23.0859C43.9051 18.751 47.0447 16.6663 51.9895 13.1331C54.7975 11.1268 62.7782 8.0322 66.0553 7.68542C70.0496 7.26276 71.2893 8.22345 74.361 11.2394C78.1821 14.9911 92.5389 24.3311 105.153 23.0859C116.823 21.9339 121.519 1.80446 132.096 7.68542C144.453 14.5564 141.617 38.5185 155.797 39.9079C172.387 41.5333 190.236 0.814453 190.236 0.814453L190.236 58.6253L78.3516 58.6253L67.4218 60.7086Z" fill="#495057"/>
<path d="M67.4218 60.7086C67.4218 60.7086 72.2238 64.7098 78.3516 58.6253C81.5297 55.4696 63.4526 62.1997 67.4218 60.7086C71.9411 59.0108 9.40411 59.5992 14.0551 60.7086C-10.6245 54.8218 24.854 63.2846 14.0551 60.7086C24.3447 63.163 -21.9618 60.7086 14.0527 60.7086C14.0557 60.7086 31.436 30.8857 39.4508 23.0859C43.9051 18.751 47.0447 16.6663 51.9895 13.1331C54.7975 11.1268 62.7782 8.0322 66.0553 7.68542C70.0496 7.26276 71.2893 8.22345 74.361 11.2394C78.1821 14.9911 92.5389 24.3311 105.153 23.0859C116.823 21.9339 121.519 1.80446 132.096 7.68542C144.453 14.5564 141.617 38.5185 155.797 39.9079C172.387 41.5333 190.236 0.814453 190.236 0.814453L190.236 58.6253L78.3516 58.6253L67.4218 60.7086Z" fill="#495057"/>
</g>
</svg>
