<svg width="20" height="21" viewBox="0 0 20 21" fill="none" xmlns="http://www.w3.org/2000/svg">
<path d="M18.0495 9.63498L17.2328 13.1183C16.5328 16.1267 15.1495 17.3433 12.5495 17.0933C12.1328 17.06 11.6828 16.985 11.1995 16.8683L9.7995 16.535C6.3245 15.71 5.2495 13.9933 6.06617 10.51L6.88283 7.01832C7.0495 6.30998 7.2495 5.69332 7.4995 5.18498C8.4745 3.16832 10.1328 2.62665 12.9162 3.28498L14.3078 3.60998C17.7995 4.42665 18.8662 6.15165 18.0495 9.63498Z" stroke="#33CC33" stroke-width="1.5" stroke-linecap="round" stroke-linejoin="round"/>
<path d="M12.5493 17.0919C12.0326 17.4419 11.3826 17.7336 10.591 17.9919L9.27431 18.4253C5.96597 19.4919 4.22431 18.6003 3.14931 15.2919L2.08264 12.0003C1.01597 8.69193 1.89931 6.94193 5.20764 5.87526L6.52431 5.44193C6.86597 5.33359 7.19097 5.24193 7.49931 5.18359C7.24931 5.69193 7.04931 6.30859 6.88264 7.01693L6.06597 10.5086C5.24931 13.9919 6.32431 15.7086 9.79931 16.5336L11.1993 16.8669C11.6826 16.9836 12.1326 17.0586 12.5493 17.0919Z" stroke="#33CC33" stroke-width="1.5" stroke-linecap="round" stroke-linejoin="round"/>
<path d="M10.5332 8.04297L14.5749 9.06797" stroke="#33CC33" stroke-width="1.5" stroke-linecap="round" stroke-linejoin="round"/>
<path d="M9.7168 11.2656L12.1335 11.8823" stroke="#33CC33" stroke-width="1.5" stroke-linecap="round" stroke-linejoin="round"/>
</svg>
