<svg width="21" height="20" viewBox="0 0 21 20" fill="none" xmlns="http://www.w3.org/2000/svg">
<path d="M6.04392 5.70629L6.05021 5.70049L6.05626 5.69444C6.43172 5.31898 6.43172 4.70635 6.05626 4.33088L5.47553 3.75016L6.04792 3.17777C6.42339 2.80231 6.42339 2.18968 6.04792 1.81422C5.67246 1.43876 5.05983 1.43876 4.68437 1.81422L4.10654 2.39204L3.54246 1.81711L3.54247 1.8171L3.53959 1.81422C3.16413 1.43876 2.5515 1.43876 2.17603 1.81422C1.80057 2.18968 1.80057 2.80231 2.17603 3.17777L2.17747 3.1792L2.75388 3.75018L2.16913 4.32947L2.16912 4.32946L2.1677 4.33089C1.79224 4.70635 1.79224 5.31898 2.1677 5.69444L2.17375 5.70049L2.18004 5.70629C2.36646 5.87838 2.60309 5.96979 2.84531 5.96979C3.09749 5.96979 3.33598 5.88285 3.52725 5.70629L3.53504 5.69911L3.54246 5.69155L4.10796 5.11517L4.69413 5.69586L4.69949 5.70117L4.70504 5.70629C4.89146 5.87838 5.12809 5.96979 5.37031 5.96979C5.60582 5.96979 5.85265 5.88285 6.04392 5.70629ZM2.88698 1.26145H5.33698C5.78062 1.26145 6.08454 1.39253 6.27708 1.58507C6.46962 1.77761 6.60069 2.08152 6.60069 2.52516V4.97516C6.60069 5.41881 6.46962 5.72272 6.27708 5.91526C6.08454 6.1078 5.78062 6.23887 5.33698 6.23887H2.88698C2.44333 6.23887 2.13942 6.1078 1.94688 5.91526C1.75434 5.72272 1.62327 5.41881 1.62327 4.97516V2.52516C1.62327 2.08152 1.75434 1.77761 1.94688 1.58507C2.13942 1.39253 2.44334 1.26145 2.88698 1.26145Z" fill="#1F1F1F" stroke="white" stroke-width="0.855914"/>
<path d="M17.8239 13.239L17.8229 13.24C17.2572 13.8096 16.4858 14.5868 15.6985 15.3798C14.8033 16.2817 13.8877 17.2041 13.2313 17.865L13.2262 17.8701L13.2213 17.8754C13.2107 17.8868 13.2006 17.893 13.1905 17.8972C13.1795 17.9016 13.1639 17.9053 13.1432 17.9053C13.1159 17.9053 13.0839 17.8935 13.0604 17.8716C13.0406 17.8533 13.0295 17.8312 13.0295 17.7999V14.8832C13.0295 13.9151 13.8589 13.0862 14.9016 13.0862L14.9061 13.0862C15.695 13.0779 16.7924 13.0779 17.7349 13.0779C17.7781 13.0779 17.8026 13.0929 17.8186 13.1095C17.8378 13.1296 17.8486 13.1571 17.8486 13.1832C17.8486 13.1977 17.8463 13.206 17.8444 13.2109C17.8427 13.2152 17.8383 13.2247 17.8239 13.239Z" fill="white" stroke="white" stroke-width="0.855914"/>
<path d="M17.8239 13.239L17.8229 13.24C17.2572 13.8096 16.4858 14.5868 15.6985 15.3798C14.8033 16.2817 13.8877 17.2041 13.2313 17.865L13.2262 17.8701L13.2213 17.8754C13.2107 17.8868 13.2006 17.893 13.1905 17.8972C13.1795 17.9016 13.1639 17.9053 13.1432 17.9053C13.1159 17.9053 13.0839 17.8935 13.0604 17.8716C13.0406 17.8533 13.0295 17.8312 13.0295 17.7999V14.8832C13.0295 13.9151 13.8589 13.0862 14.9016 13.0862L14.9061 13.0862C15.695 13.0779 16.7924 13.0779 17.7349 13.0779C17.7781 13.0779 17.8026 13.0929 17.8186 13.1095C17.8378 13.1296 17.8486 13.1571 17.8486 13.1832C17.8486 13.1977 17.8463 13.206 17.8444 13.2109C17.8427 13.2152 17.8383 13.2247 17.8239 13.239Z" fill="white" stroke="white" stroke-width="0.855914"/>
<path d="M9.11198 2.09495H14.2203C16.2256 2.09495 17.8507 3.72001 17.8507 5.72533V10.567C17.8507 10.7945 17.6701 10.9724 17.4453 10.9724H17.4367C16.4201 10.9724 15.3475 10.9724 14.8995 10.9807C12.7153 10.9829 10.9257 12.7235 10.9257 14.8837V17.5003C10.9257 17.7223 10.7423 17.9057 10.5203 17.9057H6.50365C4.49833 17.9057 2.87327 16.2806 2.87327 14.2753V8.75033C2.87327 8.52835 3.05667 8.34495 3.27865 8.34495H5.77865C7.39833 8.34495 8.7066 7.03668 8.7066 5.41699V2.50033C8.7066 2.27835 8.89 2.09495 9.11198 2.09495ZM5.42865 14.6033H7.62865C8.23077 14.6033 8.6816 14.1208 8.6816 13.5503C8.6816 12.9752 8.23441 12.489 7.62865 12.489H5.42865C4.84695 12.489 4.37569 12.9677 4.37569 13.5503C4.37569 14.1283 4.85062 14.6033 5.42865 14.6033ZM5.42865 11.5116H9.95365C10.5243 11.5116 11.0149 11.044 11.0149 10.4587C11.0149 9.86866 10.528 9.39737 9.95365 9.39737H5.42865C4.84695 9.39737 4.37569 9.876 4.37569 10.4587C4.37569 11.0367 4.85062 11.5116 5.42865 11.5116Z" fill="white" stroke="white" stroke-width="0.855914"/>
</svg>
