<svg width="24" height="32" viewBox="0 0 24 32" fill="none" xmlns="http://www.w3.org/2000/svg">
<path d="M6 18C6.82843 18 7.5 17.1046 7.5 16C7.5 14.8954 6.82843 14 6 14C5.17157 14 4.5 14.8954 4.5 16C4.5 17.1046 5.17157 18 6 18Z" fill="#121212"/>
<path d="M12 18C12.8284 18 13.5 17.1046 13.5 16C13.5 14.8954 12.8284 14 12 14C11.1716 14 10.5 14.8954 10.5 16C10.5 17.1046 11.1716 18 12 18Z" fill="#121212"/>
<path d="M18 18C18.8284 18 19.5 17.1046 19.5 16C19.5 14.8954 18.8284 14 18 14C17.1716 14 16.5 14.8954 16.5 16C16.5 17.1046 17.1716 18 18 18Z" fill="#121212"/>
</svg>
