<svg width="40" height="40" viewBox="0 0 40 40" fill="none" xmlns="http://www.w3.org/2000/svg">
<rect width="40" height="40" rx="15" fill="#F8F9FA"/>
<path d="M29.0763 16.58V23.42C29.0763 24.54 28.4763 25.58 27.5063 26.15L21.5662 29.58C20.5962 30.14 19.3963 30.14 18.4163 29.58L12.4762 26.15C11.5062 25.59 10.9062 24.55 10.9062 23.42V16.58C10.9062 15.46 11.5062 14.42 12.4762 13.85L18.4163 10.42C19.3863 9.86 20.5862 9.86 21.5662 10.42L27.5063 13.85C28.4763 14.42 29.0763 15.45 29.0763 16.58Z" stroke="#1F1F1F" stroke-width="1.5" stroke-linecap="round" stroke-linejoin="round"/>
<path d="M20.0019 18.9998C21.2887 18.9998 22.3319 17.9566 22.3319 16.6698C22.3319 15.383 21.2887 14.3398 20.0019 14.3398C18.7151 14.3398 17.6719 15.383 17.6719 16.6698C17.6719 17.9566 18.7151 18.9998 20.0019 18.9998Z" stroke="#292D32" stroke-width="1.5" stroke-linecap="round" stroke-linejoin="round"/>
<path d="M24 24.6599C24 22.8599 22.21 21.3999 20 21.3999C17.79 21.3999 16 22.8599 16 24.6599" stroke="#292D32" stroke-width="1.5" stroke-linecap="round" stroke-linejoin="round"/>
</svg>
