<svg width="24" height="24" viewBox="0 0 24 24" fill="none" xmlns="http://www.w3.org/2000/svg">
<path d="M22 22.25H2C1.86614 22.25 1.75 22.1339 1.75 22C1.75 21.8661 1.86614 21.75 2 21.75H22C22.1339 21.75 22.25 21.8661 22.25 22C22.25 22.1339 22.1339 22.25 22 22.25Z" fill="#1F1F1F" stroke="#1F1F1F"/>
<path d="M2.76001 22.01L2.76001 22.0103C2.76001 22.0762 2.78625 22.1394 2.83353 22.1867C2.88074 22.2339 2.94383 22.2602 3.0095 22.2603C3.00967 22.2603 3.00984 22.2603 3.01001 22.2603L14.9992 22.2403H15C15.1395 22.2403 15.2499 22.1286 15.25 21.9905C15.25 21.9904 15.25 21.9903 15.25 21.9903L15.24 7.07062V7.07029C15.24 6.31587 14.8723 5.62334 14.2439 5.20711L14.2424 5.20612L10.2424 2.53614L10.2406 2.53491C9.49047 2.02939 8.51049 2.02766 7.74756 2.53614L2.76001 22.01ZM2.76001 22.01L2.75 7.07029C2.75 7.07024 2.75 7.07019 2.75 7.07014C2.75005 6.32805 3.12595 5.62348 3.74813 5.20574C3.74828 5.20564 3.74843 5.20554 3.74858 5.20544L7.74732 2.5363L2.76001 22.01ZM8.0324 2.9444L8.03265 2.94424C8.32573 2.74885 8.66243 2.6503 9 2.6503C9.33167 2.6503 9.68259 2.7458 9.98359 2.9584L13.9749 5.62258C14.4596 5.93781 14.7499 6.487 14.75 7.06993L8.0324 2.9444ZM8.0324 2.9444L4.03376 5.61354C3.54358 5.93645 3.25 6.48317 3.25 7.07029L3.25 7.07064L3.26001 21.2606L3.26036 21.7612L3.76096 21.7603L14.261 21.7403L14.7604 21.7393L14.76 21.2399L14.75 7.07029L8.0324 2.9444Z" fill="#00FF55" stroke="#00FF55"/>
<path d="M19.9766 22.26C19.8427 22.26 19.7266 22.1439 19.7266 22.01V18C19.7266 17.8661 19.8427 17.75 19.9766 17.75C20.1104 17.75 20.2266 17.8661 20.2266 18V22.01C20.2266 22.1482 20.1161 22.26 19.9766 22.26Z" fill="#00FF55" stroke="#1F1F1F"/>
<path d="M20 18.25C18.7561 18.25 17.75 17.2439 17.75 16V14C17.75 12.7561 18.7561 11.75 20 11.75C21.2439 11.75 22.25 12.7561 22.25 14V16C22.25 17.2439 21.2439 18.25 20 18.25ZM20 12.25C19.0339 12.25 18.25 13.0339 18.25 14V16C18.25 16.9661 19.0339 17.75 20 17.75C20.9661 17.75 21.75 16.9661 21.75 16V14C21.75 13.0339 20.9661 12.25 20 12.25Z" fill="#00FF55" stroke="#1F1F1F"/>
<path d="M15 14.75H3C2.59 14.75 2.25 14.41 2.25 14C2.25 13.59 2.59 13.25 3 13.25H15C15.41 13.25 15.75 13.59 15.75 14C15.75 14.41 15.41 14.75 15 14.75Z" fill="#1F1F1F"/>
<path d="M9 22.75C8.59 22.75 8.25 22.41 8.25 22V18.25C8.25 17.84 8.59 17.5 9 17.5C9.41 17.5 9.75 17.84 9.75 18.25V22C9.75 22.41 9.41 22.75 9 22.75Z" fill="#00FF55"/>
<path d="M9 11.25C7.76 11.25 6.75 10.24 6.75 9C6.75 7.76 7.76 6.75 9 6.75C10.24 6.75 11.25 7.76 11.25 9C11.25 10.24 10.24 11.25 9 11.25ZM9 8.25C8.59 8.25 8.25 8.59 8.25 9C8.25 9.41 8.59 9.75 9 9.75C9.41 9.75 9.75 9.41 9.75 9C9.75 8.59 9.41 8.25 9 8.25Z" fill="#00FF55"/>
</svg>
