<svg width="24" height="24" viewBox="0 0 24 24" fill="none" xmlns="http://www.w3.org/2000/svg">
<path d="M6.80914 6.8374L6.81648 6.83062L6.82355 6.82355C7.26882 6.37829 7.26882 5.65171 6.82355 5.20645L6.11711 4.5L6.81355 3.80355C7.25882 3.35829 7.25882 2.63171 6.81355 2.18645C6.36829 1.74118 5.64171 1.74118 5.19645 2.18645L4.49338 2.88951L3.8069 2.18983L3.80692 2.18981L3.80355 2.18645C3.35829 1.74118 2.63171 1.74118 2.18645 2.18645C1.74118 2.63171 1.74118 3.35829 2.18645 3.80355L2.18644 3.80356L2.18813 3.80523L2.88953 4.50002L2.17811 5.20479L2.17811 5.20479L2.17645 5.20645C1.73118 5.65171 1.73118 6.37829 2.17645 6.82355L2.18351 6.83062L2.19086 6.8374C2.4121 7.04162 2.69278 7.15 2.98 7.15C3.27938 7.15 3.56224 7.04685 3.78914 6.8374L3.79824 6.82901L3.8069 6.82017L4.49504 6.1188L5.20811 6.82521L5.21438 6.83142L5.22086 6.8374C5.4421 7.04162 5.72278 7.15 6.01 7.15C6.28938 7.15 6.58224 7.04685 6.80914 6.8374ZM3.03 1.5H5.97C6.50508 1.5 6.87354 1.65815 7.1077 1.8923C7.34185 2.12646 7.5 2.49492 7.5 3.03V5.97C7.5 6.50508 7.34185 6.87354 7.1077 7.1077C6.87354 7.34185 6.50508 7.5 5.97 7.5H3.03C2.49492 7.5 2.12646 7.34185 1.8923 7.1077C1.65815 6.87354 1.5 6.50508 1.5 5.97V3.03C1.5 2.49492 1.65815 2.12646 1.8923 1.8923C2.12646 1.65815 2.49492 1.5 3.03 1.5Z" fill="#1F1F1F" stroke="#1F1F1F"/>
<path d="M20.9639 15.8966L20.9627 15.8978C20.2842 16.5811 19.3588 17.5133 18.4145 18.4647C17.3399 19.5472 16.2407 20.6545 15.4528 21.4478L15.4468 21.4538L15.4411 21.4599C15.427 21.4751 15.4133 21.4838 15.3993 21.4894C15.3843 21.4955 15.3639 21.5002 15.3375 21.5002C15.3013 21.5002 15.2596 21.4847 15.2288 21.4561C15.2025 21.4318 15.1875 21.4018 15.1875 21.3602V17.8602C15.1875 16.6906 16.1892 15.6902 17.4475 15.6902V15.6902L17.4528 15.6901C18.3995 15.6802 19.7165 15.6802 20.8475 15.6802C20.9031 15.6802 20.9361 15.6997 20.9577 15.7223C20.9832 15.7489 20.9975 15.7853 20.9975 15.8202C20.9975 15.839 20.9945 15.8507 20.9915 15.8584C20.9887 15.8653 20.9824 15.8782 20.9639 15.8966Z" fill="#00FF55" stroke="#1F1F1F"/>
<path d="M20.9639 15.8966L20.9627 15.8978C20.2842 16.5811 19.3588 17.5133 18.4145 18.4647C17.3399 19.5472 16.2407 20.6545 15.4528 21.4478L15.4468 21.4538L15.4411 21.4599C15.427 21.4751 15.4133 21.4838 15.3993 21.4894C15.3843 21.4955 15.3639 21.5002 15.3375 21.5002C15.3013 21.5002 15.2596 21.4847 15.2288 21.4561C15.2025 21.4318 15.1875 21.4018 15.1875 21.3602V17.8602C15.1875 16.6906 16.1892 15.6902 17.4475 15.6902V15.6902L17.4528 15.6901C18.3995 15.6802 19.7165 15.6802 20.8475 15.6802C20.9031 15.6802 20.9361 15.6997 20.9577 15.7223C20.9832 15.7489 20.9975 15.7853 20.9975 15.8202C20.9975 15.839 20.9945 15.8507 20.9915 15.8584C20.9887 15.8653 20.9824 15.8782 20.9639 15.8966Z" fill="#00FF55" stroke="#1F1F1F"/>
<path d="M10.5 2.5H16.63C19.0439 2.5 21 4.45614 21 6.87V12.68C21 12.9606 20.7771 13.18 20.5 13.18H20.4903C19.2701 13.18 17.9826 13.18 17.4452 13.19C14.8313 13.1926 12.69 15.2755 12.69 17.86V21C12.69 21.2739 12.4639 21.5 12.19 21.5H7.37C4.95614 21.5 3 19.5439 3 17.13V10.5C3 10.2261 3.22614 10 3.5 10H6.5C8.43614 10 10 8.43614 10 6.5V3C10 2.72614 10.2261 2.5 10.5 2.5ZM6.08 17.51H8.72C9.43483 17.51 9.97 16.9374 9.97 16.26C9.97 15.577 9.43909 15 8.72 15H6.08C5.38956 15 4.83 15.5682 4.83 16.26C4.83 16.9461 5.39386 17.51 6.08 17.51ZM6.08 13.8H11.51C12.1875 13.8 12.77 13.2447 12.77 12.55C12.77 11.8496 12.1919 11.29 11.51 11.29H6.08C5.38956 11.29 4.83 11.8582 4.83 12.55C4.83 13.2361 5.39386 13.8 6.08 13.8Z" fill="#00FF55" stroke="#1F1F1F"/>
</svg>
