<svg width="24" height="24" viewBox="0 0 24 24" fill="none" xmlns="http://www.w3.org/2000/svg">
<path d="M17.5291 7.77C17.4591 7.76 17.3891 7.76 17.3191 7.77C15.7691 7.72 14.5391 6.45 14.5391 4.89C14.5391 3.3 15.8291 2 17.4291 2C19.0191 2 20.3191 3.29 20.3191 4.89C20.3091 6.45 19.0791 7.72 17.5291 7.77Z" fill="#1F1F1F"/>
<path d="M20.7916 14.6999C19.6716 15.4499 18.1016 15.7299 16.6516 15.5399C17.0316 14.7199 17.2316 13.8099 17.2416 12.8499C17.2416 11.8499 17.0216 10.8999 16.6016 10.0699C18.0816 9.86991 19.6516 10.1499 20.7816 10.8999C22.3616 11.9399 22.3616 13.6499 20.7916 14.6999Z" fill="#00FF55"/>
<path d="M6.43625 7.77C6.50625 7.76 6.57625 7.76 6.64625 7.77C8.19625 7.72 9.42625 6.45 9.42625 4.89C9.42625 3.29 8.13625 2 6.53625 2C4.94625 2 3.65625 3.29 3.65625 4.89C3.65625 6.45 4.88625 7.72 6.43625 7.77Z" fill="#1F1F1F"/>
<path d="M6.54719 12.8501C6.54719 13.8201 6.75719 14.7401 7.13719 15.5701C5.72719 15.7201 4.25719 15.4201 3.17719 14.7101C1.59719 13.6601 1.59719 11.9501 3.17719 10.9001C4.24719 10.1801 5.75719 9.8901 7.17719 10.0501C6.76719 10.8901 6.54719 11.8401 6.54719 12.8501Z" fill="#00FF55"/>
<path d="M12.1169 15.87C12.0369 15.86 11.9469 15.86 11.8569 15.87C10.0169 15.81 8.54688 14.3 8.54688 12.44C8.55687 10.54 10.0869 9 11.9969 9C13.8969 9 15.4369 10.54 15.4369 12.44C15.4269 14.3 13.9669 15.81 12.1169 15.87Z" fill="#1F1F1F"/>
<path d="M8.86687 17.9401C7.35687 18.9501 7.35687 20.6101 8.86687 21.6101C10.5869 22.7601 13.4069 22.7601 15.1269 21.6101C16.6369 20.6001 16.6369 18.9401 15.1269 17.9401C13.4169 16.7901 10.5969 16.7901 8.86687 17.9401Z" fill="#00FF55"/>
</svg>
